# xmcd
#
# Track frame offsets:
#	150
#	10185
#	22205
#	36690
#	48745
#	60170
#	76040
#	86092
#	107745
#	121032
#	131105
#	144305
#	165615
#	176205
#	199037
#	215702
#	234550
#	256047
#	269080
#	277647
#
# Disc length: 4083
#
# Revision: 2
# Processed by: cddbd v1.5.1PL0 Copyright (c) Steve Scherf et al.
# Submitted via: audiograbber 1.83.01
# Normalized: r1:DSETVAR2
#
DISCID=1d0ff114
DTITLE=Various Artist - Texas Blues
DYEAR=1900
DGENRE=Blues
TTITLE0=T-Bone Walker - She's my old time used to be
TTITLE1=Clarence Samuels - She walk, she walk, she walk
TTITLE2=Percy Mayfield - Gone astray
TTITLE3=Lester Williams - Wintertime blues
TTITLE4=Joe "Papoose" Fritz - I'm a stepper
TTITLE5=Lou Ann Barton - Young and dumb
TTITLE6=King Ivory - You don't love me no more
TTITLE7=Juke Boy Bonner - Life's highway
TTITLE8=Lightnin' Hopkins - Stinking foot
TTITLE9=Johnny Winter - Sloppy drunk blues
TTITLE10=Henry Hayes - Picking my baby's bones
TTITLE11=Johnny Copeland - Travelling man blues
TTITLE12=Albert Collinn - The freeze
TTITLE13=Peppermint Harris - Penthouse in the ghetto
TTITLE14=Ted Hawley and Juke Boy Bonner - Trying to keep it all together
TTITLE15=James Bolden - Deep blue
TTITLE16=Joey Long - Shove it up your heart
TTITLE17=Mr Brown - Ain't got much
TTITLE18=Royal Earl - Talking guitar
TTITLE19=Chris Holzhaus - Lone sad letters
EXTD=
EXTT0=
EXTT1=
EXTT2=
EXTT3=
EXTT4=
EXTT5=
EXTT6=
EXTT7=
EXTT8=
EXTT9=
EXTT10=
EXTT11=
EXTT12=
EXTT13=
EXTT14=
EXTT15=
EXTT16=
EXTT17=
EXTT18=
EXTT19=
PLAYORDER=
